<?xml version="1.0" encoding="UTF-8"?>
<!DOCTYPE svg PUBLIC "-//W3C//DTD SVG 1.1//EN" "http://www.w3.org/Graphics/SVG/1.1/DTD/svg11.dtd">
<svg xmlns="http://www.w3.org/2000/svg" version="1.1" width="48px" height="48px" style="shape-rendering:geometricPrecision; text-rendering:geometricPrecision; image-rendering:optimizeQuality; fill-rule:evenodd; clip-rule:evenodd" xmlns:xlink="http://www.w3.org/1999/xlink">
<g><path style="opacity:0.845" fill="#191919" d="M 20.5,-0.5 C 22.5,-0.5 24.5,-0.5 26.5,-0.5C 29.5576,3.02983 28.8909,5.36317 24.5,6.5C 23.8333,1.16667 23.1667,1.16667 22.5,6.5C 20.8333,6.5 19.1667,6.5 17.5,6.5C 17.5,7.5 17.5,8.5 17.5,9.5C 21.5138,9.66551 25.5138,9.49885 29.5,9C 30.3802,7.64387 30.7135,6.14387 30.5,4.5C 33.7766,4.21614 36.9433,4.54948 40,5.5C 41.3905,12.7458 41.8905,20.0791 41.5,27.5C 40.5,27.5 39.5,27.5 38.5,27.5C 38.6662,21.4908 38.4995,15.4908 38,9.5C 35.3268,5.24584 33.4935,5.57917 32.5,10.5C 26.5368,11.4959 20.5368,11.8293 14.5,11.5C 14.5,9.16667 14.5,6.83333 14.5,4.5C 16.1667,4.5 17.8333,4.5 19.5,4.5C 19.366,2.70848 19.6993,1.04181 20.5,-0.5 Z"/></g>
<g><path style="opacity:0.806" fill="#191919" d="M 47.5,36.5 C 47.5,37.8333 47.5,39.1667 47.5,40.5C 46.2831,43.0667 44.6165,45.4 42.5,47.5C 39.5,47.5 36.5,47.5 33.5,47.5C 33.0825,46.7784 32.4158,46.2784 31.5,46C 23.8333,45.6667 16.1667,45.3333 8.5,45C 8,44.5 7.5,44 7,43.5C 6.33333,31.1667 6.33333,18.8333 7,6.5C 8.88409,4.42366 11.0508,4.09033 13.5,5.5C 12.6721,6.41471 11.6721,7.08138 10.5,7.5C 9.16667,19.1667 9.16667,30.8333 10.5,42.5C 16.7818,43.626 23.1151,43.7927 29.5,43C 27.0302,32.1358 31.3635,27.8025 42.5,30C 44.8257,31.8049 46.4923,33.9716 47.5,36.5 Z M 34.5,32.5 C 39.7167,31.4392 43.0501,33.4392 44.5,38.5C 41.6365,45.1146 37.4698,46.1146 32,41.5C 30.9271,37.9003 31.7605,34.9003 34.5,32.5 Z"/></g>
<g><path style="opacity:0.558" fill="#191919" d="M 13.5,14.5 C 15.3464,14.2222 16.6798,14.8888 17.5,16.5C 16.6798,18.1112 15.3464,18.7778 13.5,18.5C 13.5,17.1667 13.5,15.8333 13.5,14.5 Z"/></g>
<g><path style="opacity:0.902" fill="#191919" d="M 19.5,15.5 C 24.544,15.1725 29.544,15.5059 34.5,16.5C 32,16.8333 29.5,17.1667 27,17.5C 24.0706,17.4752 21.5706,16.8086 19.5,15.5 Z"/></g>
<g><path style="opacity:0.558" fill="#191919" d="M 13.5,21.5 C 15.3464,21.2222 16.6798,21.8888 17.5,23.5C 16.6798,25.1112 15.3464,25.7778 13.5,25.5C 13.5,24.1667 13.5,22.8333 13.5,21.5 Z"/></g>
<g><path style="opacity:0.902" fill="#191919" d="M 19.5,22.5 C 24.544,22.1725 29.544,22.5059 34.5,23.5C 32,23.8333 29.5,24.1667 27,24.5C 24.0706,24.4752 21.5706,23.8086 19.5,22.5 Z"/></g>
<g><path style="opacity:0.558" fill="#191919" d="M 13.5,28.5 C 15.3464,28.2222 16.6798,28.8888 17.5,30.5C 16.6798,32.1112 15.3464,32.7778 13.5,32.5C 13.5,31.1667 13.5,29.8333 13.5,28.5 Z"/></g>
<g><path style="opacity:0.853" fill="#191919" d="M 19.5,29.5 C 22.8984,29.1796 26.2317,29.513 29.5,30.5C 27.8333,30.8333 26.1667,31.1667 24.5,31.5C 22.3603,31.4439 20.6936,30.7773 19.5,29.5 Z"/></g>
<g><path style="opacity:0.654" fill="#191919" d="M 36.5,33.5 C 37.5,33.5 38.5,33.5 39.5,33.5C 39.162,36.1569 39.8287,38.4902 41.5,40.5C 39.9936,41.7472 38.4936,41.7472 37,40.5C 36.5034,38.1902 36.3367,35.8568 36.5,33.5 Z"/></g>
<g><path style="opacity:0.558" fill="#191919" d="M 13.5,35.5 C 15.3464,35.2222 16.6798,35.8888 17.5,37.5C 16.6798,39.1112 15.3464,39.7778 13.5,39.5C 13.5,38.1667 13.5,36.8333 13.5,35.5 Z"/></g>
<g><path style="opacity:0.79" fill="#191919" d="M 19.5,36.5 C 21.924,36.1924 24.2573,36.5258 26.5,37.5C 25.3333,37.8333 24.1667,38.1667 23,38.5C 21.3189,38.3917 20.1522,37.7251 19.5,36.5 Z"/></g>
</svg>
